<mxfile host="Electron" agent="Mozilla/5.0 (X11; Linux x86_64) AppleWebKit/537.36 (KHTML, like Gecko) draw.io/24.7.5 Chrome/126.0.6478.183 Electron/31.3.0 Safari/537.36" version="24.7.5">
  <diagram name="Page-1" id="pQxOaECDz_pDuZdol2RD">
    <mxGraphModel dx="985" dy="496" grid="1" gridSize="10" guides="1" tooltips="1" connect="1" arrows="1" fold="1" page="1" pageScale="1" pageWidth="1169" pageHeight="827" math="1" shadow="0">
      <root>
        <mxCell id="0" />
        <mxCell id="1" parent="0" />
        <mxCell id="qX87Ivnl-2qktojtxvYj-1" value="" style="ellipse;whiteSpace=wrap;html=1;aspect=fixed;fillColor=#F8F9FA;dashed=1;strokeWidth=1" parent="1" vertex="1">
          <mxGeometry x="140" y="150" width="380" height="380" as="geometry" />
        </mxCell>
        <mxCell id="qX87Ivnl-2qktojtxvYj-2" value="" style="ellipse;whiteSpace=wrap;html=1;rotation=-90;fillColor=none;dashed=1" parent="1" vertex="1">
          <mxGeometry x="135.98000000000002" y="240.39" width="380.08" height="198" as="geometry" />
        </mxCell>
        <mxCell id="qX87Ivnl-2qktojtxvYj-3" value="" style="ellipse;whiteSpace=wrap;html=1;rotation=90;direction=south;fillColor=none;dashed=1" parent="1" vertex="1">
          <mxGeometry x="254.99999999999994" y="153.68000000000004" width="150" height="376.32" as="geometry" />
        </mxCell>
        <mxCell id="qX87Ivnl-2qktojtxvYj-4" value="" style="endArrow=classic;html=1;rounded=0;entryX=0.5;entryY=0;entryDx=0;entryDy=0;fillColor=none;dashed=1" parent="1" target="qX87Ivnl-2qktojtxvYj-1" edge="1" source="qX87Ivnl-2qktojtxvYj-8">
          <mxGeometry width="50" height="50" relative="1" as="geometry">
            <mxPoint x="330" y="340" as="sourcePoint" />
            <mxPoint x="360" y="340" as="targetPoint" />
          </mxGeometry>
        </mxCell>
        <mxCell id="qX87Ivnl-2qktojtxvYj-5" value="" style="endArrow=classic;html=1;rounded=0;entryX=0.5;entryY=1;entryDx=0;entryDy=0;fillColor=none;dashed=1" parent="1" target="qX87Ivnl-2qktojtxvYj-1" edge="1" source="qX87Ivnl-2qktojtxvYj-23">
          <mxGeometry width="50" height="50" relative="1" as="geometry">
            <mxPoint x="329.5" y="340" as="sourcePoint" />
            <mxPoint x="329.5" y="150" as="targetPoint" />
          </mxGeometry>
        </mxCell>
        <mxCell id="qX87Ivnl-2qktojtxvYj-6" value="" style="endArrow=classic;startArrow=classic;html=1;rounded=0;exitX=0.76;exitY=0.066;exitDx=0;exitDy=0;exitPerimeter=0;entryX=0.263;entryY=0.932;entryDx=0;entryDy=0;entryPerimeter=0;fillColor=none;dashed=1" parent="1" source="qX87Ivnl-2qktojtxvYj-3" target="qX87Ivnl-2qktojtxvYj-3" edge="1">
          <mxGeometry width="50" height="50" relative="1" as="geometry">
            <mxPoint x="310" y="390" as="sourcePoint" />
            <mxPoint x="360" y="340" as="targetPoint" />
          </mxGeometry>
        </mxCell>
        <mxCell id="qX87Ivnl-2qktojtxvYj-7" value="" style="endArrow=classic;startArrow=classic;html=1;rounded=0;entryX=1;entryY=0.5;entryDx=0;entryDy=0;exitX=0;exitY=0.5;exitDx=0;exitDy=0;fillColor=none;dashed=1" parent="1" source="qX87Ivnl-2qktojtxvYj-1" target="qX87Ivnl-2qktojtxvYj-1" edge="1">
          <mxGeometry width="50" height="50" relative="1" as="geometry">
            <mxPoint x="310" y="390" as="sourcePoint" />
            <mxPoint x="360" y="340" as="targetPoint" />
          </mxGeometry>
        </mxCell>
        <mxCell id="qX87Ivnl-2qktojtxvYj-9" value="" style="endArrow=classic;html=1;rounded=0;entryX=0.5;entryY=1;entryDx=0;entryDy=0;strokeWidth=2;strokeColor=#CC0000;fillColor=#CC0000;" parent="1" target="qX87Ivnl-2qktojtxvYj-8" edge="1">
          <mxGeometry width="50" height="50" relative="1" as="geometry">
            <mxPoint x="330" y="340" as="sourcePoint" />
            <mxPoint x="440" y="340" as="targetPoint" />
          </mxGeometry>
        </mxCell>
        <mxCell id="qX87Ivnl-2qktojtxvYj-15" value="&lt;span style=&quot;font-size: 18px;&quot;&gt;$$\ket{0}$$&lt;/span&gt;" style="text;html=1;align=center;verticalAlign=middle;whiteSpace=wrap;rounded=0;" parent="1" vertex="1">
          <mxGeometry x="300" y="110" width="60" height="30" as="geometry" />
        </mxCell>
        <mxCell id="qX87Ivnl-2qktojtxvYj-16" value="&lt;span style=&quot;font-size: 18px;&quot;&gt;$$\ket{1}$$&lt;/span&gt;" style="text;html=1;align=center;verticalAlign=middle;whiteSpace=wrap;rounded=0;" parent="1" vertex="1">
          <mxGeometry x="300" y="540" width="60" height="30" as="geometry" />
        </mxCell>
        <mxCell id="qX87Ivnl-2qktojtxvYj-17" value="&lt;span style=&quot;font-size: 18px;&quot;&gt;$$\ket{+}$$&lt;/span&gt;" style="text;html=1;align=center;verticalAlign=middle;whiteSpace=wrap;rounded=0;" parent="1" vertex="1">
          <mxGeometry x="180" y="408.39" width="60" height="30" as="geometry" />
        </mxCell>
        <mxCell id="qX87Ivnl-2qktojtxvYj-18" value="&lt;span style=&quot;font-size: 18px;&quot;&gt;$$\ket{-}$$&lt;/span&gt;" style="text;html=1;align=center;verticalAlign=middle;whiteSpace=wrap;rounded=0;" parent="1" vertex="1">
          <mxGeometry x="410" y="250" width="60" height="30" as="geometry" />
        </mxCell>
        <mxCell id="qX87Ivnl-2qktojtxvYj-19" value="&lt;span style=&quot;font-size: 18px;&quot;&gt;$$\ket{+i}$$&lt;/span&gt;" style="text;html=1;align=center;verticalAlign=middle;whiteSpace=wrap;rounded=0;" parent="1" vertex="1">
          <mxGeometry x="516.06" y="324.39" width="60" height="30" as="geometry" />
        </mxCell>
        <mxCell id="qX87Ivnl-2qktojtxvYj-20" value="&lt;span style=&quot;font-size: 18px;&quot;&gt;$$\ket{-i}$$&lt;/span&gt;" style="text;html=1;align=center;verticalAlign=middle;whiteSpace=wrap;rounded=0;" parent="1" vertex="1">
          <mxGeometry x="100" y="325" width="30" height="30" as="geometry" />
        </mxCell>
        <mxCell id="qX87Ivnl-2qktojtxvYj-21" value="&lt;font style=&quot;font-size: 18px;&quot;&gt;$$\ket{\psi_1}$$&lt;/font&gt;" style="text;html=1;align=center;verticalAlign=middle;whiteSpace=wrap;rounded=0;" parent="1" vertex="1">
          <mxGeometry x="330" y="170" width="50" height="30" as="geometry" />
        </mxCell>
        <mxCell id="qX87Ivnl-2qktojtxvYj-22" value="" style="endArrow=classic;html=1;rounded=0;strokeWidth=2;strokeColor=#0000CC;fillColor=#CC0000;entryX=0.5;entryY=0;entryDx=0;entryDy=0;" parent="1" target="qX87Ivnl-2qktojtxvYj-23" edge="1">
          <mxGeometry width="50" height="50" relative="1" as="geometry">
            <mxPoint x="330" y="340" as="sourcePoint" />
            <mxPoint x="280" y="470" as="targetPoint" />
          </mxGeometry>
        </mxCell>
        <mxCell id="qX87Ivnl-2qktojtxvYj-24" value="&lt;font style=&quot;font-size: 18px;&quot;&gt;$$\ket{\psi_2}$$&lt;/font&gt;" style="text;html=1;align=center;verticalAlign=middle;whiteSpace=wrap;rounded=0;" parent="1" vertex="1">
          <mxGeometry x="330" y="480" width="50" height="30" as="geometry" />
        </mxCell>
        <mxCell id="flwJ19-Pdd-CdJbQuZ_Y-1" value="" style="endArrow=classic;html=1;rounded=0;entryX=0.5;entryY=0;entryDx=0;entryDy=0;fillColor=none;dashed=1" edge="1" parent="1" target="qX87Ivnl-2qktojtxvYj-8">
          <mxGeometry width="50" height="50" relative="1" as="geometry">
            <mxPoint x="330" y="340" as="sourcePoint" />
            <mxPoint x="330" y="150" as="targetPoint" />
          </mxGeometry>
        </mxCell>
        <mxCell id="qX87Ivnl-2qktojtxvYj-8" value="" style="ellipse;whiteSpace=wrap;html=1;aspect=fixed;fillColor=#FF3333;" parent="1" vertex="1">
          <mxGeometry x="320" y="140" width="20" height="20" as="geometry" />
        </mxCell>
        <mxCell id="flwJ19-Pdd-CdJbQuZ_Y-2" value="" style="endArrow=classic;html=1;rounded=0;entryX=0.5;entryY=1;entryDx=0;entryDy=0;fillColor=none;dashed=1" edge="1" parent="1" target="qX87Ivnl-2qktojtxvYj-23">
          <mxGeometry width="50" height="50" relative="1" as="geometry">
            <mxPoint x="330" y="350" as="sourcePoint" />
            <mxPoint x="330" y="530" as="targetPoint" />
          </mxGeometry>
        </mxCell>
        <mxCell id="qX87Ivnl-2qktojtxvYj-23" value="" style="ellipse;whiteSpace=wrap;html=1;aspect=fixed;fillColor=#0000CC;" parent="1" vertex="1">
          <mxGeometry x="322.5" y="515" width="15" height="15" as="geometry" />
        </mxCell>
      </root>
    </mxGraphModel>
  </diagram>
</mxfile>
